<svg id="eJHLBoxG4g31" xmlns="http://www.w3.org/2000/svg" xmlns:xlink="http://www.w3.org/1999/xlink" viewBox="0 0 380 380" shape-rendering="geometricPrecision" text-rendering="geometricPrecision"><path d="M323.939575,275.057983c6.707215,11.664399,13.257355,22.999115,20.247528,35.095246-7.921264,0-15.006958,0-22.092621,0-10.495483,0-20.99295-.11438-31.485138.071716-3.034149.053803-4.729797-.855743-6.276794-3.544342-29.799087-51.788742-59.705719-103.51564-89.597916-155.250793-.892593-1.544846-1.869186-3.041153-3.077468-4.998932-12.027863,20.734131-23.719086,40.88211-35.404084,61.033691-5.092483,8.782333-10.067642,17.63588-15.355682,26.29863-.934403,1.530701-3.138153,3.222519-4.776474,3.243835-17.815231.231644-35.634598.144852-54.534004.144852c36.794059-63.754272,73.226082-126.881248,110.171196-190.89727c44.237213,76.554359,88.130798,152.514061,132.181457,228.803367Z" transform="translate(.245596 0.0224)" fill="#eb723d"/><path d="M192.999908,310.249329c-22.291137.00003-44.08226.00003-66.93428.00003c22.006531-38.14328,43.581009-75.537674,65.573257-113.656174c21.870286,37.86139,43.494431,75.296708,65.652405,113.656113-21.759399,0-42.77539,0-64.291382.000031Z" fill="#343434"/><path d="M101.999969,262.375183c7.471093.000244,14.442223.000244,21.987755.000244-.566116,1.431336-.838974,2.47461-1.356781,3.377442-7.858993,13.702819-15.681175,27.428009-23.729492,41.019195-.905533,1.529114-3.119919,3.219757-4.747742,3.24057-17.48098.223511-34.966064.128784-52.449993.102539-.457256-.000671-.914192-.21231-2.026405-.487884c1.641853-2.898529,3.14785-5.592285,4.686386-8.267334c6.715683-11.676453,13.567947-23.277283,20.076778-35.067749c1.714257-3.105286,3.705925-4.055329,7.088128-3.988159c9.986999.198333,19.980476.070861,30.471366.071136Z" fill="#eb733f"/></svg>
